# xmcd
# 
# Track frame offsets:
#     150
#     12166
#     28366
#     40354
#     50853
#     62720
#     75369
#     90647
#     101850
#     114107
#     123743
#     136672
#     148369
#     158673
#     176862
# 
# Disc length: 2585
# 
# Revision: 1
# Processed by: cddbd v1.5.2PL0 Copyright (c) Steve Scherf et al.
# Submitted via: fre:ac v1.0.17
# 
DISCID=d20a170f
DTITLE=Various Artist - Simply Divas CD3
DYEAR=2008
DGENRE=Jazz
TTITLE0=Ike and Tina Turner - Ike et Tina - So Fine
TTITLE1=Zilla Mayes - Zilla Mayes - I love you Still
TTITLE2=Betty Harris - Betty Harris - Trouble with my lover
TTITLE3=Ann Sexton - Ann Sexton - You're Losing me
TTITLE4=June Conquest - June conquest - What's this i see
TTITLE5=Betty LaVette - Bettye Lavette - Let me down easy
TTITLE6=Peggy Scott - Peggy scott - Every little bit hurts
TTITLE7=Tina Turner - Tina Turner - Soul deep
TTITLE8=Barbara George - Barbara george - Something you got
TTITLE9=Zilla Mayes - Zilla Mayes - All i want is you
TTITLE10=Ann Sexton - Ann Sexton - i'm his wife
TTITLE11=Imma Thomas - Irma Thomas - In between Tears 
TTITLE12=Bettye La Vette - Betty Lavette - Take Another little piece of my heart
TTITLE13=Mary Wells - Mary Wells - What love has joined Together
TTITLE14=Ann Sexton - Ann sexton - I had a fight with Love
EXTD=YEAR: 2008
EXTT0=
EXTT1=
EXTT2=
EXTT3=
EXTT4=
EXTT5=
EXTT6=
EXTT7=
EXTT8=
EXTT9=
EXTT10=
EXTT11=
EXTT12=
EXTT13=
EXTT14=
PLAYORDER=
